<svg xmlns="http://www.w3.org/2000/svg" width="44" height="29">
    <path fill="#573778" fill-rule="evenodd" d="M43.303 1.994v25.302c0 .146-.044.278-.083.411l.277.28-.858.579c-.076.051-.162.081-.244.117l-.008.004a1.454 1.454 0 0 1-.576.134H1.725a1.46 1.46 0 0 1-.582-.137c-.086-.037-.174-.068-.251-.121l-.847-.582.27-.273c-.038-.134-.082-.266-.082-.412V1.994c0-.134.043-.254.075-.378L.05 1.355.841.764c.091-.068.194-.11.295-.155L1.15.602a1.44 1.44 0 0 1 .575-.133h40.086c.202 0 .393.054.575.133l.014.007c.101.045.204.087.295.155l.791.591-.259.262c.033.123.076.243.076.377zM41.612 3.25L30.327 14.666l11.285 11.415V3.25zM21.768 20.907L40.264 2.194H3.27l18.498 18.713zm18.456 6.188L29.16 15.902l-6.296 6.369c-.584.592-1.608.592-2.192 0l-6.296-6.369L3.312 27.095h36.912zM1.923 26.081l11.285-11.415L1.923 3.25v22.831z" opacity=".8"/>
</svg>
