<svg xmlns="http://www.w3.org/2000/svg" width="64" height="65">
    <defs>
        <filter id="a" width="64" height="65" x="0" y="0" filterUnits="userSpaceOnUse">
            <feOffset dx="-3" in="SourceAlpha"/>
            <feGaussianBlur result="blurOut" stdDeviation="3.873"/>
            <feFlood flood-color="#2B153D" result="floodOut"/>
            <feComposite in="floodOut" in2="blurOut" operator="atop"/>
            <feComponentTransfer>
                <feFuncA slope=".26" type="linear"/>
            </feComponentTransfer>
            <feMerge>
                <feMergeNode/>
                <feMergeNode in="SourceGraphic"/>
            </feMerge>
        </filter>
    </defs>
    <path fill="#BB6AFF" fill-rule="evenodd" d="M49.19 19.051l-2.067 28.216c.002 1.477-1.419 2.723-3.165 2.723H25.045c-1.745 0-3.166-1.246-3.166-2.777l-2.067-28.162h-2.803v-1.496h9.673v-.774c0-1.531 1.421-2.777 3.167-2.777h9.306c1.746 0 3.167 1.246 3.167 2.777v.774h9.673v1.496H49.19zm-8.398-2.27c0-.706-.734-1.281-1.637-1.281h-9.306c-.903 0-1.637.575-1.637 1.281v.774h12.58v-.774zm1.53 2.27H21.366l2.041 28.109c.002.76.736 1.334 1.638 1.334h18.913c.903 0 1.637-.574 1.637-1.281l2.064-28.162h-5.337zm-3.44 25.391l1.722-21.506 1.526.117-1.723 21.506-1.525-.117zm-5.145-21.448h1.53V44.55h-1.53V22.994zm-6.862.059l1.525-.117 1.722 21.506-1.526.117-1.721-21.506z" filter="url(#a)"/>
</svg>
