<svg xmlns="http://www.w3.org/2000/svg" width="39" height="50">
    <path fill="#573778" fill-rule="evenodd" d="M36.963 49.389H1.797a1.63 1.63 0 0 1-1.637-1.62V22.554c0-.893.734-1.62 1.637-1.62h4.39v-6.987C6.187 6.748 12.105.892 19.38.892c7.275 0 13.193 5.856 13.193 13.055v6.987h4.39a1.63 1.63 0 0 1 1.637 1.62v25.215a1.63 1.63 0 0 1-1.637 1.62zm-6.077-35.442c0-6.278-5.162-11.385-11.506-11.385S7.874 7.669 7.874 13.947v6.987h23.012v-6.987zm6.026 8.607l-4.339.006v.044H6.187v-.006l-4.39.006.051 25.165 35.064-.05V22.554zM19.38 28.348c2.887 0 5.229 2.317 5.229 5.174 0 2.035-1.198 3.777-2.924 4.623v2.058c0 1.035-1.032 1.874-2.305 1.874-1.273 0-2.305-.839-2.305-1.874v-2.059c-1.726-.845-2.924-2.587-2.924-4.622 0-2.857 2.341-5.174 5.229-5.174z" opacity=".8"/>
</svg>
