<svg xmlns="http://www.w3.org/2000/svg" width="53" height="49">
    <path fill="#795F93" fill-rule="evenodd" d="M24.39 12.475c3.613 0 6.538 2.92 6.559 6.509l.015 2.828 1.585-.009a1.2 1.2 0 0 1 1.2 1.188l.067 11.797c.003.318-.119.62-.344.848a1.183 1.183 0 0 1-.843.356l-16.211.094h-.004a1.197 1.197 0 0 1-1.193-1.193l-.068-11.792a1.2 1.2 0 0 1 1.185-1.205l1.586-.009-.016-2.828c-.021-3.61 2.888-6.564 6.482-6.584zm4.919 9.346l-.015-2.827c-.017-2.679-2.198-4.858-4.864-4.858a4.887 4.887 0 0 0-4.867 4.914l.016 2.827 2.562-.015 7.168-.041zM16.873 34.422l15.286-.09-.062-10.865-15.287.088.063 10.867zm29.929-6.874l-5.457-9.365 4.756-.027C43.437 8.649 34.741 1.662 24.459 1.662h-.13c-6.011.035-11.649 2.418-15.874 6.71-4.226 4.292-6.534 9.98-6.499 16.015.035 6.035 2.408 11.696 6.682 15.939 4.244 4.211 9.856 6.526 15.816 6.526h.133c7.209-.042 14.014-3.592 18.205-9.494l1.348.964c-4.499 6.336-11.804 10.146-19.543 10.192h-.143c-6.399 0-12.424-2.485-16.979-7.006C2.886 36.953.338 30.876.301 24.396.264 17.917 2.742 11.812 7.278 7.204 11.815 2.596 17.867.037 24.319 0h.14c11.197 0 20.638 7.717 23.349 18.146l4.342-.025-5.348 9.427z"/>
</svg>
