<svg xmlns="http://www.w3.org/2000/svg" width="50" height="49">
    <path fill="#FFF" fill-rule="evenodd" d="M25.086 48.606c-13.382 0-24.27-10.885-24.27-24.264C.816 10.964 11.704.078 25.086.078s24.27 10.886 24.27 24.264c0 13.379-10.888 24.264-24.27 24.264zm0-46.873c-12.471 0-22.615 10.142-22.615 22.609 0 12.468 10.144 22.61 22.615 22.61 12.47 0 22.615-10.142 22.615-22.61 0-12.467-10.145-22.609-22.615-22.609zm.828 34.539h-1.656V25.17H13.154v-1.655h11.104V12.413h1.656v11.102h11.104v1.655H25.914v11.102z"/>
</svg>
