<svg xmlns="http://www.w3.org/2000/svg" width="185" height="185">
    <path fill="#795F93" fill-rule="evenodd" d="M155.844 159.931l.06.072-2.328 2.043c-.73.64-1.481 1.25-2.229 1.865l-.074.062a93.003 93.003 0 0 1-3.438 2.69l-.045.034a90.68 90.68 0 0 1-3.591 2.542l-.031.022a92.588 92.588 0 0 1-11.488 6.585c-.593.285-1.201.545-1.801.818-.681.309-1.357.629-2.045.922-.824.351-1.662.674-2.497 1.002-.479.188-.954.385-1.436.564-.89.333-1.792.639-2.695.945-.443.149-.884.305-1.33.448-.912.293-1.833.564-2.757.83-.455.13-.909.263-1.366.387a91.64 91.64 0 0 1-2.743.693 90.589 90.589 0 0 1-4.157.891c-.564.107-1.13.206-1.697.302-.838.143-1.677.282-2.522.402-.669.095-1.341.174-2.013.255-.759.091-1.515.186-2.279.258-.852.082-1.707.137-2.563.195-.604.04-1.204.094-1.811.123a93.476 93.476 0 0 1-4.466.113c-1.494 0-2.983-.042-4.468-.113-.602-.029-1.197-.082-1.796-.122-.862-.058-1.724-.114-2.583-.196-.754-.072-1.501-.165-2.249-.255-.685-.082-1.37-.163-2.051-.26a91.313 91.313 0 0 1-2.478-.394c-.586-.1-1.172-.202-1.755-.313a92.97 92.97 0 0 1-4.179-.898 89.388 89.388 0 0 1-2.652-.67c-.499-.135-.995-.279-1.492-.422a92.618 92.618 0 0 1-2.628-.791c-.509-.163-1.013-.341-1.519-.512-.838-.286-1.676-.569-2.503-.877-.589-.22-1.171-.459-1.756-.69-.726-.289-1.457-.568-2.175-.874a89.691 89.691 0 0 1-2.795-1.259c-.348-.162-.704-.311-1.05-.477a92.531 92.531 0 0 1-20.952-13.825l-2.335-2.043.066-.079C11.236 143.132.017 119.339.017 92.974.017 42.233 41.505.954 92.502.954c50.996 0 92.484 41.279 92.484 92.02 0 26.368-11.221 50.164-29.142 66.957zM107.38 113.87c3.519-3.637 5.742-9.541 8.003-17.288l1.281-4.385 2.584 1.93c.768-.715 1.864-2.173 2.292-4.072.519-2.336.39-4.009.198-4.738l-2.415-.765.507-3.032c4.912-17.106 4.745-31.974-.434-38.805-2.081-2.746-4.924-4.081-8.69-4.081l-1.722.062-.817-.481c-2.07-1.22-3.104-2.625-3.86-3.651-1.072-1.458-1.919-2.611-9.836-2.611l-1.066.01c-10.492 0-18.266 2.958-23.159 8.797-6.838 8.167-8.517 22.012-4.992 41.151l.576 3.152-2.106.352c-.205.783-.347 2.394.074 4.619.483 2.539 2.186 4.333 2.75 4.586l2.384-.096.193 2.184c2.8 8.422 5.55 13.803 8.659 16.931l.873.874.044 1.233c.112 3.196.439 13.83-.05 16.502-.582 3.118-2.186 5.953-4.906 8.66-2.681 2.671-5.977 4.27-11.124 6.291-10.62 2.927-19.084 7.182-24.473 12.207a86.528 86.528 0 0 0 9.643 6.802c.11.066.222.129.332.195a86.404 86.404 0 0 0 3.005 1.721c.328.179.66.353.991.528a87.741 87.741 0 0 0 3.804 1.897c.679.318 1.364.624 2.052.925.566.246 1.133.494 1.704.729.584.24 1.175.466 1.766.693.662.255 1.322.515 1.99.754.446.159.899.302 1.349.455a86.299 86.299 0 0 0 8.305 2.356c.454.105.906.217 1.363.314.752.161 1.509.3 2.266.441.567.105 1.135.21 1.706.304a86.45 86.45 0 0 0 4.11.571 85.39 85.39 0 0 0 1.899.204c.817.076 1.639.134 2.462.187.51.033 1.019.074 1.531.098 1.351.063 2.709.103 4.076.103 1.367 0 2.724-.04 4.076-.103.512-.024 1.022-.065 1.533-.098a86.329 86.329 0 0 0 2.458-.187 85.927 85.927 0 0 0 1.905-.204 87.981 87.981 0 0 0 4.112-.572c.564-.093 1.123-.197 1.683-.3.765-.142 1.531-.284 2.292-.446.436-.093.867-.2 1.301-.3a85.966 85.966 0 0 0 8.521-2.424c.384-.131.772-.252 1.154-.389.712-.254 1.415-.53 2.12-.802.54-.21 1.082-.416 1.617-.636a80.262 80.262 0 0 0 1.835-.785 82.718 82.718 0 0 0 5.651-2.722c.396-.209.792-.416 1.185-.631a86.914 86.914 0 0 0 2.721-1.558c.204-.121.41-.238.612-.36a86.617 86.617 0 0 0 9.574-6.757c-5.334-4.978-13.668-9.193-23.894-12.034-5.575-2.407-7.309-3.207-9.539-5.026l-1.481-1.439c-2.329-2.25-4.732-4.576-5.419-10.074l-.025-16.051.886-.915zM92.502 7.265c-47.497 0-86.143 38.447-86.143 85.709 0 24.499 10.401 46.613 27.021 62.248 6.153-5.916 15.671-10.831 27.234-14.001 4.695-1.861 6.956-3.093 8.647-4.777 1.809-1.795 2.806-3.494 3.153-5.342.235-1.273.173-7.997-.013-13.957-3.251-3.663-6.082-9.13-8.801-17-2.794-1.461-5.284-5.017-6.033-8.94-.793-4.203-.342-7.741 1.145-9.854-3.456-20.212-1.22-35.223 6.665-44.631 6.15-7.346 15.566-11.068 27.985-11.068l1.109-.009c10.338 0 12.717 2.153 14.953 5.192.433.588.781 1.06 1.307 1.488 5.717.007 10.462 2.287 13.726 6.591 6.2 8.179 6.95 23.82 2.081 42.131 1.722 2.099 2.2 5.877 1.196 10.381-.942 4.177-3.909 7.923-6.895 9.058-2.204 7.211-4.453 12.683-8.002 16.791v13.17c.39 2.909 1.505 3.985 3.525 5.938l1.343 1.331c1.263 1.002 2.379 1.541 7.384 3.736 11.066 3.041 20.438 7.913 26.532 13.774 16.62-15.635 27.022-37.75 27.022-62.25 0-47.262-38.645-85.709-86.141-85.709z"/>
</svg>
